HIERARCHY
ROOT Hips
{
  OFFSET 5.80788e-005 67.184 3.4734
  CHANNELS 6 Xposition Yposition Zposition Zrotation Xrotation Yrotation
  JOINT Chest
  {
    OFFSET 0 8.7983 -4.7612
    CHANNELS 6 Xposition Yposition Zposition Zrotation Xrotation Yrotation
    JOINT Chest2
    {
      OFFSET 0 8.0291 0.4195
      CHANNELS 6 Xposition Yposition Zposition Zrotation Xrotation Yrotation
      JOINT Chest3
      {
        OFFSET 0 9.9351 -2.2114
        CHANNELS 6 Xposition Yposition Zposition Zrotation Xrotation Yrotation
        JOINT Neck
        {
          OFFSET 0 22.3885 -0.4656
          CHANNELS 6 Xposition Yposition Zposition Zrotation Xrotation Yrotation
          JOINT Head
          {
            OFFSET -0.0001 12.643 3.4389
            CHANNELS 6 Xposition Yposition Zposition Zrotation Xrotation Yrotation
            End Site
            {
              OFFSET 0.0001 17.6655 0.5274
            }
          }
        }
        JOINT LeftCollar
        {
          OFFSET 2.2603 21.606 7.4023
          CHANNELS 6 Xposition Yposition Zposition Zrotation Xrotation Yrotation
          JOINT LeftShoulder
          {
            OFFSET 13.5163 -1.1332 -5.0146
            CHANNELS 6 Xposition Yposition Zposition Zrotation Xrotation Yrotation
            JOINT LeftElbow
            {
              OFFSET -0.0995 -28.05 -0.2431
              CHANNELS 6 Xposition Yposition Zposition Zrotation Xrotation Yrotation
              JOINT LeftWrist
              {
                OFFSET 0.0679 -23.3996 -0.1402
                CHANNELS 6 Xposition Yposition Zposition Zrotation Xrotation Yrotation
                JOINT LeftFinger1
                {
                  OFFSET 0.7932 -9.069 2.5189
                  CHANNELS 6 Xposition Yposition Zposition Zrotation Xrotation Yrotation
                  JOINT LeftFinger11
                  {
                    OFFSET -0.8272 -3.3923 0.5977
                    CHANNELS 6 Xposition Yposition Zposition Zrotation Xrotation Yrotation
                    JOINT LeftFinger12
                    {
                      OFFSET -0.5649 -2.3158 0.4082
                      CHANNELS 6 Xposition Yposition Zposition Zrotation Xrotation Yrotation
                      End Site
                      {
                        OFFSET -0.4919 -1.6479 0.2673
                      }
                    }
                  }
                }
                JOINT LeftFinger2
                {
                  OFFSET 0.9159 -9.2044 0.2193
                  CHANNELS 6 Xposition Yposition Zposition Zrotation Xrotation Yrotation
                  JOINT LeftFinger21
                  {
                    OFFSET 0.0117 -4.1944 -0.0248
                    CHANNELS 6 Xposition Yposition Zposition Zrotation Xrotation Yrotation
                    JOINT LeftFinger22
                    {
                      OFFSET 0.0071 -2.3249 -0.0142
                      CHANNELS 6 Xposition Yposition Zposition Zrotation Xrotation Yrotation
                      End Site
                      {
                        OFFSET -0.1475 -2.0882 0.0028
                      }
                    }
                  }
                }
                JOINT LeftFinger3
                {
                  OFFSET 0.6113 -8.7231 -2.0637
                  CHANNELS 6 Xposition Yposition Zposition Zrotation Xrotation Yrotation
                  JOINT LeftFinger31
                  {
                    OFFSET -0.1927 -3.8059 -0.2383
                    CHANNELS 6 Xposition Yposition Zposition Zrotation Xrotation Yrotation
                    JOINT LeftFinger32
                    {
                      OFFSET -0.1091 -2.1688 -0.1362
                      CHANNELS 6 Xposition Yposition Zposition Zrotation Xrotation Yrotation
                      End Site
                      {
                        OFFSET -0.2358 -1.9176 -0.0906
                      }
                    }
                  }
                }
                JOINT LeftFinger4
                {
                  OFFSET -0.6151 -8.0947 -3.5641
                  CHANNELS 6 Xposition Yposition Zposition Zrotation Xrotation Yrotation
                  JOINT LeftFinger41
                  {
                    OFFSET -0.4882 -2.341 -0.6462
                    CHANNELS 6 Xposition Yposition Zposition Zrotation Xrotation Yrotation
                    JOINT LeftFinger42
                    {
                      OFFSET -0.3575 -1.7167 -0.4742
                      CHANNELS 6 Xposition Yposition Zposition Zrotation Xrotation Yrotation
                      End Site
                      {
                        OFFSET -0.4187 -1.5237 -0.3496
                      }
                    }
                  }
                }
                JOINT LeftFinger0
                {
                  OFFSET -1.42 -1.8761 1.4223
                  CHANNELS 6 Xposition Yposition Zposition Zrotation Xrotation Yrotation
                  JOINT LeftFinger01
                  {
                    OFFSET -1.1471 -3.4929 2.6334
                    CHANNELS 6 Xposition Yposition Zposition Zrotation Xrotation Yrotation
                    JOINT LeftFinger02
                    {
                      OFFSET -0.823 -2.3 1.6571
                      CHANNELS 6 Xposition Yposition Zposition Zrotation Xrotation Yrotation
                      End Site
                      {
                        OFFSET -0.5822 -1.6914 1.1582
                      }
                    }
                  }
                }
              }
            }
          }
        }
        JOINT RightCollar
        {
          OFFSET -2.2603 21.606 7.4023
          CHANNELS 6 Xposition Yposition Zposition Zrotation Xrotation Yrotation
          JOINT RightShoulder
          {
            OFFSET -13.5187 -1.1334 -5.0155
            CHANNELS 6 Xposition Yposition Zposition Zrotation Xrotation Yrotation
            JOINT RightElbow
            {
              OFFSET 0.0994 -28.0499 -0.2431
              CHANNELS 6 Xposition Yposition Zposition Zrotation Xrotation Yrotation
              JOINT RightWrist
              {
                OFFSET -0.0679 -23.3996 -0.1402
                CHANNELS 6 Xposition Yposition Zposition Zrotation Xrotation Yrotation
                JOINT RightFinger1
                {
                  OFFSET -0.7932 -9.0691 2.5189
                  CHANNELS 6 Xposition Yposition Zposition Zrotation Xrotation Yrotation
                  JOINT RightFinger11
                  {
                    OFFSET 0.8272 -3.3923 0.5977
                    CHANNELS 6 Xposition Yposition Zposition Zrotation Xrotation Yrotation
                    JOINT RightFinger12
                    {
                      OFFSET 0.565 -2.3158 0.4082
                      CHANNELS 6 Xposition Yposition Zposition Zrotation Xrotation Yrotation
                      End Site
                      {
                        OFFSET 0.4919 -1.6479 0.2673
                      }
                    }
                  }
                }
                JOINT RightFinger2
                {
                  OFFSET -0.916 -9.2044 0.2193
                  CHANNELS 6 Xposition Yposition Zposition Zrotation Xrotation Yrotation
                  JOINT RightFinger21
                  {
                    OFFSET -0.0117 -4.1944 -0.0248
                    CHANNELS 6 Xposition Yposition Zposition Zrotation Xrotation Yrotation
                    JOINT RightFinger22
                    {
                      OFFSET -0.0071 -2.3249 -0.0142
                      CHANNELS 6 Xposition Yposition Zposition Zrotation Xrotation Yrotation
                      End Site
                      {
                        OFFSET 0.1475 -2.0882 0.0028
                      }
                    }
                  }
                }
                JOINT RightFinger3
                {
                  OFFSET -0.6113 -8.7231 -2.0637
                  CHANNELS 6 Xposition Yposition Zposition Zrotation Xrotation Yrotation
                  JOINT RightFinger31
                  {
                    OFFSET 0.1927 -3.8059 -0.2383
                    CHANNELS 6 Xposition Yposition Zposition Zrotation Xrotation Yrotation
                    JOINT RightFinger32
                    {
                      OFFSET 0.1091 -2.1688 -0.1362
                      CHANNELS 6 Xposition Yposition Zposition Zrotation Xrotation Yrotation
                      End Site
                      {
                        OFFSET 0.2358 -1.9176 -0.0906
                      }
                    }
                  }
                }
                JOINT RightFinger4
                {
                  OFFSET 0.6151 -8.0947 -3.564
                  CHANNELS 6 Xposition Yposition Zposition Zrotation Xrotation Yrotation
                  JOINT RightFinger41
                  {
                    OFFSET 0.4882 -2.341 -0.6462
                    CHANNELS 6 Xposition Yposition Zposition Zrotation Xrotation Yrotation
                    JOINT RightFinger42
                    {
                      OFFSET 0.3574 -1.7166 -0.4742
                      CHANNELS 6 Xposition Yposition Zposition Zrotation Xrotation Yrotation
                      End Site
                      {
                        OFFSET 0.4187 -1.5237 -0.3496
                      }
                    }
                  }
                }
                JOINT RightFinger0
                {
                  OFFSET 1.4199 -1.8761 1.4221
                  CHANNELS 6 Xposition Yposition Zposition Zrotation Xrotation Yrotation
                  JOINT RightFinger01
                  {
                    OFFSET 1.1472 -3.4929 2.6336
                    CHANNELS 6 Xposition Yposition Zposition Zrotation Xrotation Yrotation
                    JOINT RightFinger02
                    {
                      OFFSET 0.8229 -2.3 1.6571
                      CHANNELS 6 Xposition Yposition Zposition Zrotation Xrotation Yrotation
                      End Site
                      {
                        OFFSET 0.5822 -1.6914 1.1582
                      }
                    }
                  }
                }
              }
            }
          }
        }
      }
    }
  }
  JOINT RightHip
  {
    OFFSET -9.412 3.9771 -0.7758
    CHANNELS 6 Xposition Yposition Zposition Zrotation Xrotation Yrotation
    JOINT RightKnee
    {
      OFFSET -0.7531 -40.938 0
      CHANNELS 6 Xposition Yposition Zposition Zrotation Xrotation Yrotation
      JOINT RightAnkle
      {
        OFFSET 0 -40.1986 0
        CHANNELS 6 Xposition Yposition Zposition Zrotation Xrotation Yrotation
        JOINT RightToe
        {
          OFFSET 0 -4.4182 9.239
          CHANNELS 6 Xposition Yposition Zposition Zrotation Xrotation Yrotation
          End Site
          {
            OFFSET 0 0 6.1981
          }
        }
      }
    }
  }
  JOINT LeftHip
  {
    OFFSET 9.4119 3.9773 -0.7758
    CHANNELS 6 Xposition Yposition Zposition Zrotation Xrotation Yrotation
    JOINT LeftKnee
    {
      OFFSET 0.7532 -40.9383 0
      CHANNELS 6 Xposition Yposition Zposition Zrotation Xrotation Yrotation
      JOINT LeftAnkle
      {
        OFFSET 0 -40.1986 0
        CHANNELS 6 Xposition Yposition Zposition Zrotation Xrotation Yrotation
        JOINT LeftToe
        {
          OFFSET 0 -4.4182 9.239
          CHANNELS 6 Xposition Yposition Zposition Zrotation Xrotation Yrotation
          End Site
          {
            OFFSET 0 0 6.1981
          }
        }
      }
    }
  }
}
MOTION
Frames:	4
Frame Time:	0.0333333
5.80788e-005 67.184 3.4734 0 0 -0 0 8.7983 -4.7612 0 0 -0 0 8.0291 0.4195 0 0 -0 0 9.9351 -2.2114 0 0 -0 0 22.3885 -0.4656 0 0 -0 -0.0001 12.643 3.4389 0 0 -0 2.2603 21.606 7.4023 0 0 -12.5014 13.5163 -1.1332 -5.0146 88.1196 14.2451 10.6914 -0.0995 -28.05 -0.2431 -0.00160068 -0.00239207 0.000740045 0.0679 -23.3996 -0.1402 -8.4365e-005 7.00714e-005 -9.52055e-007 0.7932 -9.069 2.5189 9.93923e-017 -1.98785e-016 -1.59028e-015 -0.8272 -3.3923 0.5977 9.93923e-017 -5.96354e-016 -1.59028e-015 -0.5649 -2.3158 0.4082 -9.93923e-017 -5.96354e-016 -1.59028e-015 0.9159 -9.2044 0.2193 9.93923e-017 -1.98785e-016 -1.59028e-015 0.0117 -4.1944 -0.0248 -0.0128176 0.00232552 8.52707e-005 0.0071 -2.3249 -0.0142 9.93923e-017 5.96354e-016 -0 0.6113 -8.7231 -2.0637 9.93923e-017 -1.98785e-016 -1.59028e-015 -0.1927 -3.8059 -0.2383 -0.0160551 0.00299681 0.000857156 -0.1091 -2.1688 -0.1362 -2.48481e-016 0 3.18055e-015 -0.6151 -8.0947 -3.5641 9.93923e-017 -1.98785e-016 -1.59028e-015 -0.4882 -2.341 -0.6462 -0.0125865 0.0031206 0.00282719 -0.3575 -1.7167 -0.4742 0 1.98785e-016 -0 -1.42 -1.8761 1.4223 9.93923e-017 -1.98785e-016 -1.59028e-015 -1.1471 -3.4929 2.6334 9.93923e-017 -5.96354e-016 -1.59028e-015 -0.823 -2.3 1.6571 -9.93923e-017 -5.96354e-016 -1.59028e-015 -2.2603 21.606 7.4023 -0.865644 0.16582 7.03859 -13.5187 -1.1334 -5.0155 -88.0329 10.2057 -10.5567 0.0994 -28.0499 -0.2431 0.0015593 -0.00248883 -0.000788628 -0.0679 -23.3996 -0.1402 7.87605e-005 4.10553e-005 1.24965e-005 -0.7932 -9.0691 2.5189 -3.97569e-016 -7.95139e-016 3.18055e-015 0.8272 -3.3923 0.5977 -1.98785e-016 -3.97569e-016 3.18055e-015 0.565 -2.3158 0.4082 -1.98785e-016 0 3.18055e-015 -0.916 -9.2044 0.2193 -3.97569e-016 -7.95139e-016 3.18055e-015 -0.0117 -4.1944 -0.0248 0.0129473 0.00231697 -8.70038e-005 -0.0071 -2.3249 -0.0142 9.93923e-017 -7.95139e-016 1.59028e-015 -0.6113 -8.7231 -2.0637 -3.97569e-016 -7.95139e-016 3.18055e-015 0.1927 -3.8059 -0.2383 0.0163314 0.00303369 -0.000872333 0.1091 -2.1688 -0.1362 3.97569e-016 7.95139e-016 -3.18055e-015 0.6151 -8.0947 -3.564 -3.97569e-016 -7.95139e-016 3.18055e-015 0.4882 -2.341 -0.6462 0.0145763 0.00367772 -0.00326275 0.3574 -1.7166 -0.4742 9.93923e-017 -3.97569e-016 -0 1.4199 -1.8761 1.4221 -3.97569e-016 -7.95139e-016 3.18055e-015 1.1472 -3.4929 2.6336 -1.98785e-016 -3.97569e-016 3.18055e-015 0.8229 -2.3 1.6571 -1.98785e-016 0 3.18055e-015 -9.412 3.9771 -0.7758 3.42485 1.36937 -0.0640303 -0.7531 -40.938 0 0.000136572 0.69354 0.00145564 1.77636e-015 -40.1986 -1.11022e-016 -3.42573 -2.06297 -0.0607933 8.88178e-016 -4.4182 9.239 -3.19502e-024 0 -1.48106e-024 9.4119 3.9773 -0.7758 -3.42498 1.36123 0.0639712 0.7532 -40.9383 2.22045e-016 -6.769e-005 0.712612 -0.0012277 8.88179e-016 -40.1986 0 3.42582 -2.07388 0.0612819 -8.88178e-016 -4.4182 9.239 2.55305e-023 0 -2.31416e-026 
1.63382 42.78 -1.08227 5.08815e-008 38.9981 8.17171e-008 -2.22045e-016 8.7983 -4.7612 0.259335 -4.77612 -0.262188 0 8.0291 0.4195 0.499263 -9.55334 -0.50524 -2.22045e-016 9.9351 -2.2114 0.499265 -9.55337 -0.505241 0 22.3885 -0.4656 4.17177e-006 0.326905 -4.51948e-006 -0.0001 12.643 3.4389 0.148628 0.312988 -0.000404022 2.2603 21.606 7.4023 -20.1002 -4.27549 -35.9487 13.5163 -1.1332 -5.0146 49.1377 23.9002 -40.7743 -0.0995 -28.05 -0.2431 -5.74614 -15.1685 -2.91745 0.0679 -23.3996 -0.1402 27.1584 -41.31 7.78236 0.7932 -9.069 2.5189 6.36111e-015 3.18055e-015 5.56597e-015 -0.8272 -3.3923 0.5977 6.36111e-015 1.59028e-015 1.59028e-015 -0.5649 -2.3158 0.4082 9.54166e-015 -3.97569e-015 2.38542e-015 0.9159 -9.2044 0.2193 6.36111e-015 3.18055e-015 5.56597e-015 0.0117 -4.1944 -0.0248 -0.0128106 0.00232373 8.62634e-005 0.0071 -2.3249 -0.0142 -4.6346e-031 -5.56597e-015 -4.77083e-015 0.6113 -8.7231 -2.0637 6.36111e-015 3.18055e-015 5.56597e-015 -0.1927 -3.8059 -0.2383 -0.0160561 0.00298535 0.000860178 -0.1091 -2.1688 -0.1362 1.54487e-031 -5.56597e-015 1.59028e-015 -0.6151 -8.0947 -3.5641 6.36111e-015 3.18055e-015 5.56597e-015 -0.4882 -2.341 -0.6462 -0.0126182 0.00312813 0.00284122 -0.3575 -1.7167 -0.4742 -3.18055e-015 0 7.95139e-016 -1.42 -1.8761 1.4223 6.36111e-015 3.18055e-015 5.56597e-015 -1.1471 -3.4929 2.6334 6.36111e-015 1.59028e-015 1.59028e-015 -0.823 -2.3 1.6571 9.54166e-015 -3.97569e-015 2.38542e-015 -2.2603 21.606 7.4023 13.8809 2.16031 -32.8963 -13.5187 -1.1334 -5.0155 -17.3087 -73.2929 -31.4005 0.0994 -28.0499 -0.2431 98.2568 -31.2888 74.8052 -0.0679 -23.3996 -0.1402 33.7698 -8.14181 -35.7049 -0.7932 -9.0691 2.5189 2.68813e-006 6.24174e-006 -1.03229e-006 0.8272 -3.3923 0.5977 2.68813e-006 -8.3007e-006 -1.03228e-006 0.565 -2.3158 0.4082 -2.68813e-006 8.3007e-006 1.03229e-006 -0.916 -9.2044 0.2193 2.68813e-006 6.24174e-006 -1.03229e-006 -0.0117 -4.1944 -0.0248 0.0129301 0.00232999 -7.30071e-005 -0.0071 -2.3249 -0.0142 -3.18055e-015 3.18055e-015 -0 -0.6113 -8.7231 -2.0637 2.68813e-006 6.24174e-006 -1.03229e-006 0.1927 -3.8059 -0.2383 0.0163445 0.00304119 -0.000872555 0.1091 -2.1688 -0.1362 -3.53113e-031 3.18055e-015 6.36111e-015 0.6151 -8.0947 -3.564 2.68813e-006 6.24174e-006 -1.03229e-006 0.4882 -2.341 -0.6462 0.0146116 0.00369677 -0.00326834 0.3574 -1.7166 -0.4742 -2.24963e-006 1.35993e-006 3.84012e-006 1.4199 -1.8761 1.4221 2.68813e-006 6.24174e-006 -1.03229e-006 1.1472 -3.4929 2.6336 2.68813e-006 -8.3007e-006 -1.03228e-006 0.8229 -2.3 1.6571 -2.68813e-006 8.3007e-006 1.03229e-006 -9.412 3.9771 -0.7758 -58.9149 -25.7267 -23.7266 -0.7531 -40.938 0 -177.029 85.5551 175.522 0 -40.1986 7.10543e-015 53.1264 34.9415 -59.1221 0 -4.4182 9.239 1.9611e-006 -1.83852e-006 2.79525e-006 9.4119 3.9773 -0.7758 58.8966 -25.7377 23.6996 0.7532 -40.9383 0 177.229 85.5465 -175.738 0 -40.1986 3.55271e-015 -53.1576 34.9193 59.129 -3.55271e-015 -4.4182 9.239 -9.80197e-007 -8.04869e-007 -1.39788e-006 
1.63381 42.6085 -0.557764 4.55314e-009 37.564 -7.46849e-009 0 8.7983 -4.7612 0.257286 -4.44413 -0.264283 0 8.0291 0.4195 0.496188 -8.88935 -0.510794 2.22045e-016 9.9351 -2.2114 0.496189 -8.88937 -0.510795 4.44089e-016 22.3885 -0.4656 -2.08154e-006 0.491751 2.09625e-006 -0.0001 12.643 3.4389 0.295385 0.623553 -0.0291935 2.2603 21.606 7.4023 -19.8223 -4.90578 -36.4229 13.5163 -1.1332 -5.0146 48.9144 23.9376 -40.6997 -0.0995 -28.05 -0.2431 -5.98327 -15.6369 -2.98853 0.0679 -23.3996 -0.1402 26.7935 -40.7371 7.61979 0.7932 -9.069 2.5189 -2.42365e-006 1.01237e-005 2.25668e-006 -0.8272 -3.3923 0.5977 -4.10243e-007 -1.43394e-005 -9.81585e-007 -0.5649 -2.3158 0.4082 -1.11789e-005 4.00846e-006 5.00407e-006 0.9159 -9.2044 0.2193 -2.42365e-006 1.01237e-005 2.25668e-006 0.0117 -4.1944 -0.0248 -0.0128224 0.00232239 9.53413e-005 0.0071 -2.3249 -0.0142 -9.46681e-006 -2.58154e-006 1.00423e-007 0.6113 -8.7231 -2.0637 -2.42365e-006 1.01237e-005 2.25668e-006 -0.1927 -3.8059 -0.2383 -0.0160416 0.00298933 0.000866153 -0.1091 -2.1688 -0.1362 -4.50398e-006 -2.8692e-006 8.3449e-007 -0.6151 -8.0947 -3.5641 -2.42365e-006 1.01237e-005 2.25668e-006 -0.4882 -2.341 -0.6462 -0.0125877 0.00312063 0.002841 -0.3575 -1.7167 -0.4742 -1.109e-005 -1.9947e-006 2.47075e-007 -1.42 -1.8761 1.4223 -2.42365e-006 1.01237e-005 2.25668e-006 -1.1471 -3.4929 2.6334 -4.10243e-007 -1.43394e-005 -9.81585e-007 -0.823 -2.3 1.6571 -1.11789e-005 4.00846e-006 5.00407e-006 -2.2603 21.606 7.4023 13.612 1.99324 -32.2695 -13.5187 -1.1334 -5.0155 -18.4848 -73.3302 -32.5972 0.0994 -28.0499 -0.2431 98.1325 -31.4916 74.7281 -0.0679 -23.3996 -0.1402 33.5954 -8.00533 -35.7911 -0.7932 -9.0691 2.5189 1.29762e-005 3.94089e-006 4.4142e-007 0.8272 -3.3923 0.5977 1.48077e-006 3.23518e-006 3.04273e-006 0.565 -2.3158 0.4082 8.33905e-006 -1.14625e-005 4.02412e-006 -0.916 -9.2044 0.2193 1.29762e-005 3.94089e-006 4.4142e-007 -0.0117 -4.1944 -0.0248 0.0129543 0.00230833 -7.37468e-005 -0.0071 -2.3249 -0.0142 9.54817e-006 -7.86815e-006 -4.8897e-008 -0.6113 -8.7231 -2.0637 1.29762e-005 3.94089e-006 4.4142e-007 0.1927 -3.8059 -0.2383 0.0163172 0.0030216 -0.00087583 0.1091 -2.1688 -0.1362 -8.70216e-006 1.01362e-005 1.29947e-005 0.6151 -8.0947 -3.564 1.29762e-005 3.94089e-006 4.4142e-007 0.4882 -2.341 -0.6462 0.0146132 0.00368681 -0.00326452 0.3574 -1.7166 -0.4742 7.02436e-006 -2.51305e-006 -3.32708e-006 1.4199 -1.8761 1.4221 1.29762e-005 3.94089e-006 4.4142e-007 1.1472 -3.4929 2.6336 1.48077e-006 3.23518e-006 3.04273e-006 0.8229 -2.3 1.6571 8.33905e-006 -1.14625e-005 4.02412e-006 -9.412 3.9771 -0.7758 -58.8439 -23.9468 -23.3679 -0.7531 -40.938 0 -176.892 86.0967 175.38 7.10543e-015 -40.1986 -3.55271e-015 51.9593 35.5869 -58.4154 0 -4.4182 9.239 -1.78906e-015 -3.18055e-015 -0 9.4119 3.9773 -0.7758 58.831 -23.953 23.3499 0.7532 -40.9383 0 177.128 86.0894 -175.631 7.10543e-015 -40.1986 0 -51.9814 35.5709 58.418 0 -4.4182 9.239 3.89965e-006 -1.76477e-007 5.60612e-006 
1.6338 42.4414 -0.0314897 -9.21616e-008 36.1262 4.19656e-007 0 8.7983 -4.7612 0.255233 -4.11161 -0.266337 0 8.0291 0.4195 0.493156 -8.22432 -0.516258 0 9.9351 -2.2114 0.493158 -8.22434 -0.516258 0 22.3885 -0.4656 6.08729e-006 0.656435 -6.40032e-006 -0.0001 12.643 3.4389 0.442395 0.93422 -0.0587974 2.2603 21.606 7.4023 -19.5491 -5.53911 -36.895 13.5163 -1.1332 -5.0146 48.6907 23.9758 -40.6248 -0.0995 -28.05 -0.2431 -6.22072 -16.1058 -3.06185 0.0679 -23.3996 -0.1402 26.4335 -40.1631 7.46324 0.7932 -9.069 2.5189 6.36111e-015 -6.36111e-015 5.56597e-015 -0.8272 -3.3923 0.5977 3.18055e-015 -9.54166e-015 3.18055e-015 -0.5649 -2.3158 0.4082 3.18055e-015 -6.36111e-015 -0 0.9159 -9.2044 0.2193 6.36111e-015 -6.36111e-015 5.56597e-015 0.0117 -4.1944 -0.0248 -0.0128382 0.00232963 9.03303e-005 0.0071 -2.3249 -0.0142 3.18055e-015 -2.38542e-015 1.59028e-015 0.6113 -8.7231 -2.0637 6.36111e-015 -6.36111e-015 5.56597e-015 -0.1927 -3.8059 -0.2383 -0.0160514 0.00299722 0.000860255 -0.1091 -2.1688 -0.1362 3.18055e-015 0 3.97569e-015 -0.6151 -8.0947 -3.5641 6.36111e-015 -6.36111e-015 5.56597e-015 -0.4882 -2.341 -0.6462 -0.012618 0.00313203 0.00283391 -0.3575 -1.7167 -0.4742 6.36111e-015 -3.18055e-015 2.38542e-015 -1.42 -1.8761 1.4223 6.36111e-015 -6.36111e-015 5.56597e-015 -1.1471 -3.4929 2.6334 3.18055e-015 -9.54166e-015 3.18055e-015 -0.823 -2.3 1.6571 3.18055e-015 -6.36111e-015 -0 -2.2603 21.606 7.4023 13.3449 1.82292 -31.6432 -13.5187 -1.1334 -5.0155 -19.6658 -73.3605 -33.7988 0.0994 -28.0499 -0.2431 98.0075 -31.6943 74.6503 -0.0679 -23.3996 -0.1402 33.4213 -7.86862 -35.8769 -0.7932 -9.0691 2.5189 6.36111e-015 -4.77083e-015 -3.18055e-015 0.8272 -3.3923 0.5977 3.53113e-031 -3.18055e-015 6.36111e-015 0.565 -2.3158 0.4082 -3.18055e-015 1.59028e-015 -0 -0.916 -9.2044 0.2193 6.36111e-015 -4.77083e-015 -3.18055e-015 -0.0117 -4.1944 -0.0248 0.0129731 0.0023248 -9.0213e-005 -0.0071 -2.3249 -0.0142 7.31168e-006 -1.22894e-005 -4.07984e-007 -0.6113 -8.7231 -2.0637 6.36111e-015 -4.77083e-015 -3.18055e-015 0.1927 -3.8059 -0.2383 0.0163365 0.00303798 -0.000870538 0.1091 -2.1688 -0.1362 1.76556e-031 -3.18055e-015 3.18055e-015 0.6151 -8.0947 -3.564 6.36111e-015 -4.77083e-015 -3.18055e-015 0.4882 -2.341 -0.6462 0.014578 0.00368336 -0.00326305 0.3574 -1.7166 -0.4742 -3.86444e-006 1.11284e-005 -3.30011e-006 1.4199 -1.8761 1.4221 6.36111e-015 -4.77083e-015 -3.18055e-015 1.1472 -3.4929 2.6336 3.53113e-031 -3.18055e-015 6.36111e-015 0.8229 -2.3 1.6571 -3.18055e-015 1.59028e-015 -0 -9.412 3.9771 -0.7758 -58.7842 -22.1643 -23.0151 -0.7531 -40.938 0 -176.715 86.6368 175.198 0 -40.1986 0 50.7702 36.2187 -57.6842 0 -4.4182 9.239 2.05535e-006 -4.96713e-007 8.94244e-006 9.4119 3.9773 -0.7758 58.7764 -22.1657 23.0061 0.7532 -40.9383 1.33227e-015 176.998 86.6309 -175.495 0 -40.1986 0 -50.7829 36.209 57.6821 0 -4.4182 9.239 1.93839e-006 8.2527e-007 2.81088e-006 
